<svg width="512" height="512" viewBox="0 0 512 512" fill="none" xmlns="http://www.w3.org/2000/svg">
    <!-- Definitions for Gradients and Glows -->
    <defs>
        <linearGradient id="real-gradient" x1="0" y1="0" x2="256" y2="512" gradientUnits="userSpaceOnUse">
            <stop offset="0%" stop-color="#22d3ee" /> <!-- Cyan-400 -->
            <stop offset="100%" stop-color="#06b6d4" /> <!-- Cyan-500 -->
        </linearGradient>
        <linearGradient id="fake-gradient" x1="256" y1="0" x2="512" y2="512" gradientUnits="userSpaceOnUse">
            <stop offset="0%" stop-color="#f472b6" /> <!-- Pink-400 -->
            <stop offset="100%" stop-color="#dc2626" /> <!-- Red-600 -->
        </linearGradient>
        <filter id="glow" x="-20%" y="-20%" width="140%" height="140%">
            <feGaussianBlur stdDeviation="10" result="blur" />
            <feComposite in="SourceGraphic" in2="blur" operator="over" />
        </filter>
    </defs>

    <!-- Background (Optional: Remove if you want transparent background) -->
    <rect width="512" height="512" rx="100" fill="#0f172a" />
    
    <!-- Grid Pattern Background (Subtle) -->
    <path d="M50 128H462M50 256H462M50 384H462" stroke="#1e293b" stroke-width="2" />
    <path d="M128 50V462M256 50V462M384 50V462" stroke="#1e293b" stroke-width="2" />

    <!-- Left Eye (REAL - Smooth) -->
    <path d="M256 130 C150 130 60 200 60 256 C60 312 150 382 256 382" 
          stroke="url(#real-gradient)" 
          stroke-width="24" 
          stroke-linecap="round" 
          fill="none" 
          filter="url(#glow)" />

    <!-- Right Eye (FAKE - Glitched/Pixelated) -->
    <!-- Top Arc Glitch -->
    <path d="M280 132 L320 132 L320 145 L360 145 L360 165 L400 165 L400 200 L430 200 L430 230" 
          stroke="url(#fake-gradient)" 
          stroke-width="20" 
          stroke-linecap="square" 
          fill="none" />
    
    <!-- Bottom Arc Glitch -->
    <path d="M430 280 L400 280 L400 310 L360 310 L360 330 L320 330 L320 350 L280 350 L280 380" 
          stroke="url(#fake-gradient)" 
          stroke-width="20" 
          stroke-linecap="square" 
          fill="none" />
          
    <!-- Glitch Fragments -->
    <rect x="440" y="240" width="30" height="10" fill="#f472b6" />
    <rect x="450" y="260" width="20" height="8" fill="#dc2626" />
    <rect x="380" y="120" width="15" height="15" fill="#f472b6" opacity="0.8" />

    <!-- Center Pupil (The Lens/Target) -->
    <circle cx="256" cy="256" r="60" stroke="#fff" stroke-width="8" fill="none" opacity="0.8" />
    <circle cx="256" cy="256" r="25" fill="#22d3ee" filter="url(#glow)" />
    
    <!-- Crosshair Lines inside Pupil -->
    <line x1="256" y1="180" x2="256" y2="210" stroke="#22d3ee" stroke-width="4" />
    <line x1="256" y1="332" x2="256" y2="302" stroke="#22d3ee" stroke-width="4" />
    <line x1="180" y1="256" x2="210" y2="256" stroke="#22d3ee" stroke-width="4" />
    <line x1="332" y1="256" x2="302" y2="256" stroke="#f472b6" stroke-width="4" /> <!-- Glitch hint in pupil -->

    <!-- Split Line -->
    <line x1="256" y1="110" x2="256" y2="402" stroke="#0f172a" stroke-width="8" stroke-linecap="butt" />

</svg>